<?xml version="1.0" encoding="UTF-8"?><svg xmlns="http://www.w3.org/2000/svg" xmlns:xlink="http://www.w3.org/1999/xlink" viewBox="0 0 203.26 53.29"><defs><style>.h{fill:url(#e);}.i{fill:url(#d);}.j{fill:url(#g);}.k{fill:url(#f);}.l{fill:#868686;}.m{fill:#28427b;}</style><linearGradient id="d" x1="104.71" y1="25.16" x2="203.74" y2="23.99" gradientTransform="matrix(1, 0, 0, 1, 0, 0)" gradientUnits="userSpaceOnUse"><stop offset="0" stop-color="#28427b"/><stop offset=".12" stop-color="#2e517a"/><stop offset=".72" stop-color="#4f997a"/><stop offset="1" stop-color="#5db67a"/></linearGradient><linearGradient id="e" x1="104.71" y1="24.86" x2="203.74" y2="23.69" xlink:href="#d"/><linearGradient id="f" x1="104.81" y1="33.13" x2="203.84" y2="31.96" xlink:href="#d"/><linearGradient id="g" x1="104.66" y1="20.5" x2="203.69" y2="19.33" xlink:href="#d"/></defs><g id="a"/><g id="b"><g id="c"><g><g><path class="l" d="M134.08,51.55c0,.37-.05,.67-.16,.89s-.24,.4-.4,.53c-.16,.12-.33,.21-.52,.25-.18,.04-.35,.06-.5,.06s-.3-.01-.44-.04-.28-.07-.41-.12c-.13-.05-.25-.12-.35-.2-.1-.08-.2-.17-.27-.26l.3-.28c.14,.19,.31,.33,.51,.42,.21,.09,.42,.13,.66,.13,.2,0,.36-.03,.5-.08s.25-.12,.33-.2,.16-.18,.21-.28c.05-.1,.08-.2,.11-.3s.04-.2,.04-.29,0-.16,0-.22v-.41h-.01c-.11,.18-.26,.32-.45,.42-.19,.1-.41,.15-.67,.15-.22,0-.42-.04-.62-.12-.19-.08-.36-.19-.5-.33-.14-.14-.26-.3-.34-.49-.08-.18-.12-.38-.12-.59s.04-.41,.12-.59c.08-.18,.2-.34,.34-.48,.14-.14,.31-.25,.5-.33,.19-.08,.4-.12,.62-.12,.26,0,.48,.05,.67,.15,.19,.1,.34,.24,.45,.42h.01v-.5h.38v2.77Zm-.37-1.33c0-.16-.03-.32-.09-.46-.06-.14-.15-.27-.25-.37-.11-.1-.23-.19-.37-.25-.14-.06-.3-.09-.46-.09s-.32,.03-.46,.09c-.14,.06-.27,.15-.37,.25-.1,.1-.19,.23-.25,.37-.06,.14-.09,.3-.09,.46s.03,.32,.09,.46c.06,.14,.15,.27,.25,.37,.11,.1,.23,.19,.37,.25s.3,.09,.46,.09,.32-.03,.46-.09,.27-.15,.37-.25c.1-.1,.19-.23,.25-.37,.06-.14,.09-.3,.09-.46Z"/><path class="l" d="M135.02,49.61c0-.06,0-.12,0-.2,0-.08,0-.16,0-.24,0-.08,0-.16,0-.23,0-.07,0-.12,0-.16h.39c0,.11,0,.22,0,.32,0,.1,0,.17,.02,.2,.1-.18,.23-.32,.38-.43,.15-.11,.34-.17,.57-.17,.04,0,.08,0,.11,0,.04,0,.07,.01,.11,.02l-.05,.38c-.05-.02-.1-.03-.15-.03-.17,0-.31,.03-.43,.08s-.22,.13-.3,.22-.14,.2-.18,.33c-.04,.13-.06,.26-.06,.41v1.62h-.39v-2.13Z"/><path class="l" d="M136.88,50.26c0-.23,.04-.44,.12-.63,.08-.19,.18-.36,.32-.49,.14-.14,.3-.25,.49-.32s.4-.12,.63-.12,.44,.04,.63,.12,.36,.19,.49,.32c.14,.14,.25,.3,.33,.49,.08,.19,.12,.4,.12,.63s-.04,.44-.12,.63-.19,.36-.33,.49c-.14,.14-.3,.25-.49,.32s-.4,.12-.63,.12-.44-.04-.63-.12-.36-.19-.49-.32c-.14-.14-.24-.3-.32-.49s-.12-.4-.12-.63Zm.39,0c0,.17,.03,.32,.08,.47s.13,.28,.23,.39c.1,.11,.23,.2,.37,.26,.15,.06,.31,.1,.49,.1s.34-.03,.49-.1c.15-.06,.27-.15,.37-.26,.1-.11,.18-.24,.23-.39s.08-.31,.08-.47-.03-.32-.08-.47-.13-.28-.23-.39c-.1-.11-.23-.2-.37-.26-.15-.06-.31-.1-.49-.1s-.34,.03-.49,.1c-.15,.06-.27,.15-.37,.26-.1,.11-.18,.24-.23,.39s-.08,.31-.08,.47Z"/><path class="l" d="M140.44,48.78h.42l.72,2.49h.01l.83-2.49h.37l.88,2.49h.01l.7-2.49h.38l-.87,2.97h-.4l-.89-2.43h-.01l-.83,2.43h-.4l-.93-2.97Z"/><path class="l" d="M145.35,47.6c0-.08,.03-.15,.08-.21,.06-.06,.12-.08,.21-.08s.15,.03,.21,.08c.06,.06,.08,.12,.08,.21s-.03,.15-.08,.21c-.06,.06-.12,.08-.21,.08s-.15-.03-.21-.08c-.06-.06-.08-.12-.08-.21Zm.1,1.18h.39v2.97h-.39v-2.97Z"/><path class="l" d="M146.92,49.61c0-.06,0-.12,0-.2,0-.08,0-.16,0-.24,0-.08,0-.16,0-.23,0-.07,0-.12,0-.16h.39c0,.11,0,.22,0,.32,0,.1,0,.17,.02,.2h.02c.08-.16,.21-.3,.39-.42s.39-.18,.63-.18,.42,.04,.57,.11,.26,.17,.34,.29c.08,.12,.14,.25,.17,.41,.03,.15,.05,.31,.05,.48v1.77h-.39v-1.75c0-.12-.01-.24-.03-.35-.02-.11-.06-.22-.11-.31-.05-.09-.13-.16-.22-.22-.1-.05-.22-.08-.38-.08-.14,0-.27,.02-.4,.07-.13,.05-.24,.12-.33,.22-.09,.1-.17,.23-.22,.38-.05,.15-.08,.33-.08,.54v1.48h-.39v-2.13Z"/><path class="l" d="M153.48,51.55c0,.37-.05,.67-.16,.89s-.24,.4-.4,.53c-.16,.12-.33,.21-.52,.25-.18,.04-.35,.06-.5,.06s-.3-.01-.44-.04-.28-.07-.41-.12c-.13-.05-.25-.12-.35-.2-.1-.08-.2-.17-.27-.26l.3-.28c.14,.19,.31,.33,.51,.42,.21,.09,.42,.13,.66,.13,.2,0,.36-.03,.5-.08s.25-.12,.33-.2,.16-.18,.21-.28c.05-.1,.08-.2,.11-.3s.04-.2,.04-.29,0-.16,0-.22v-.41h-.01c-.11,.18-.26,.32-.45,.42-.19,.1-.41,.15-.67,.15-.22,0-.42-.04-.62-.12-.19-.08-.36-.19-.5-.33-.14-.14-.26-.3-.34-.49-.08-.18-.12-.38-.12-.59s.04-.41,.12-.59c.08-.18,.2-.34,.34-.48,.14-.14,.31-.25,.5-.33,.19-.08,.4-.12,.62-.12,.26,0,.48,.05,.67,.15,.19,.1,.34,.24,.45,.42h.01v-.5h.38v2.77Zm-.37-1.33c0-.16-.03-.32-.09-.46-.06-.14-.15-.27-.25-.37-.11-.1-.23-.19-.37-.25-.14-.06-.3-.09-.46-.09s-.32,.03-.46,.09c-.14,.06-.27,.15-.37,.25-.1,.1-.19,.23-.25,.37-.06,.14-.09,.3-.09,.46s.03,.32,.09,.46c.06,.14,.15,.27,.25,.37,.11,.1,.23,.19,.37,.25s.3,.09,.46,.09,.32-.03,.46-.09,.27-.15,.37-.25c.1-.1,.19-.23,.25-.37,.06-.14,.09-.3,.09-.46Z"/><path class="l" d="M158.6,50.91c0,.06,0,.12,0,.2,0,.08,0,.16,0,.24,0,.08,0,.16,0,.23,0,.07,0,.12,0,.16h-.39c0-.11,0-.22,0-.32,0-.1,0-.17-.02-.2h-.02c-.08,.16-.21,.3-.38,.42s-.39,.18-.63,.18-.42-.04-.57-.11-.26-.17-.35-.29c-.08-.12-.14-.25-.17-.41-.03-.15-.04-.31-.04-.48v-1.77h.39v1.75c0,.12,.01,.24,.03,.35,.02,.11,.06,.22,.11,.31s.13,.16,.22,.22c.1,.05,.22,.08,.38,.08,.14,0,.28-.02,.4-.07s.24-.12,.33-.22c.09-.1,.16-.23,.22-.38,.05-.15,.08-.33,.08-.54v-1.48h.38v2.13Z"/><path class="l" d="M159.58,48.78h.38v.52h.01c.06-.1,.13-.19,.22-.27,.09-.08,.19-.14,.29-.19s.21-.09,.33-.11c.12-.02,.23-.04,.34-.04,.23,0,.44,.04,.63,.12s.36,.19,.49,.32c.14,.14,.25,.3,.33,.49,.08,.19,.12,.4,.12,.63s-.04,.44-.12,.63c-.08,.19-.19,.36-.33,.49-.14,.14-.3,.25-.49,.32s-.4,.12-.63,.12c-.11,0-.22-.01-.34-.04-.12-.02-.23-.06-.33-.11s-.2-.11-.29-.19c-.09-.07-.17-.16-.22-.27h-.01v1.99h-.38v-4.43Zm.35,1.48c0,.17,.03,.32,.1,.47,.06,.15,.15,.28,.26,.39,.11,.11,.24,.2,.39,.26,.15,.06,.31,.1,.49,.1s.34-.03,.49-.1c.15-.06,.27-.15,.37-.26,.1-.11,.18-.24,.23-.39s.08-.31,.08-.47-.03-.32-.08-.47-.13-.28-.23-.39c-.1-.11-.23-.2-.37-.26-.15-.06-.31-.1-.49-.1s-.34,.03-.49,.1c-.15,.06-.28,.15-.39,.26-.11,.11-.2,.24-.26,.39-.06,.15-.1,.31-.1,.47Z"/><path class="l" d="M166.71,49.12h-.85v1.93c0,.13,.04,.24,.11,.31,.07,.07,.17,.11,.3,.11,.07,0,.15,0,.22-.03,.08-.02,.15-.04,.22-.07l.03,.35c-.07,.03-.16,.05-.25,.07-.09,.02-.18,.03-.25,.03-.14,0-.25-.02-.35-.06s-.18-.1-.24-.16c-.06-.07-.1-.15-.13-.24-.03-.09-.04-.19-.04-.3v-1.93h-.64v-.35h.64v-.85h.39v.85h.85v.35Z"/><path class="l" d="M167.23,50.26c0-.23,.04-.44,.12-.63,.08-.19,.18-.36,.32-.49,.14-.14,.3-.25,.49-.32s.4-.12,.63-.12,.44,.04,.63,.12,.36,.19,.49,.32c.14,.14,.25,.3,.33,.49,.08,.19,.12,.4,.12,.63s-.04,.44-.12,.63-.19,.36-.33,.49c-.14,.14-.3,.25-.49,.32s-.4,.12-.63,.12-.44-.04-.63-.12-.36-.19-.49-.32c-.14-.14-.24-.3-.32-.49s-.12-.4-.12-.63Zm.39,0c0,.17,.03,.32,.08,.47s.13,.28,.23,.39c.1,.11,.23,.2,.37,.26,.15,.06,.31,.1,.49,.1s.34-.03,.49-.1c.15-.06,.27-.15,.37-.26,.1-.11,.18-.24,.23-.39s.08-.31,.08-.47-.03-.32-.08-.47-.13-.28-.23-.39c-.1-.11-.23-.2-.37-.26-.15-.06-.31-.1-.49-.1s-.34,.03-.49,.1c-.15,.06-.27,.15-.37,.26-.1,.11-.18,.24-.23,.39s-.08,.31-.08,.47Z"/><path class="l" d="M174.19,51.55c0,.37-.05,.67-.16,.89s-.24,.4-.4,.53c-.16,.12-.33,.21-.52,.25-.18,.04-.35,.06-.5,.06s-.3-.01-.44-.04-.28-.07-.41-.12c-.13-.05-.25-.12-.35-.2-.1-.08-.2-.17-.27-.26l.3-.28c.14,.19,.31,.33,.51,.42,.21,.09,.42,.13,.66,.13,.2,0,.36-.03,.5-.08s.25-.12,.33-.2,.16-.18,.21-.28c.05-.1,.08-.2,.11-.3s.04-.2,.04-.29,0-.16,0-.22v-.41h-.01c-.11,.18-.26,.32-.45,.42-.19,.1-.41,.15-.67,.15-.22,0-.42-.04-.62-.12-.19-.08-.36-.19-.5-.33-.14-.14-.26-.3-.34-.49-.08-.18-.12-.38-.12-.59s.04-.41,.12-.59c.08-.18,.2-.34,.34-.48,.14-.14,.31-.25,.5-.33,.19-.08,.4-.12,.62-.12,.26,0,.48,.05,.67,.15,.19,.1,.34,.24,.45,.42h.01v-.5h.38v2.77Zm-.37-1.33c0-.16-.03-.32-.09-.46-.06-.14-.15-.27-.25-.37-.11-.1-.23-.19-.37-.25-.14-.06-.3-.09-.46-.09s-.32,.03-.46,.09c-.14,.06-.27,.15-.37,.25-.1,.1-.19,.23-.25,.37-.06,.14-.09,.3-.09,.46s.03,.32,.09,.46c.06,.14,.15,.27,.25,.37,.11,.1,.23,.19,.37,.25s.3,.09,.46,.09,.32-.03,.46-.09,.27-.15,.37-.25c.1-.1,.19-.23,.25-.37,.06-.14,.09-.3,.09-.46Z"/><path class="l" d="M177.76,51.19c-.15,.23-.33,.39-.56,.49-.22,.1-.46,.15-.73,.15-.23,0-.43-.04-.62-.12-.18-.08-.34-.19-.48-.32s-.23-.3-.3-.49c-.07-.19-.11-.4-.11-.63s.04-.43,.11-.62,.18-.35,.31-.49c.13-.14,.29-.25,.47-.33,.18-.08,.38-.12,.6-.12s.43,.04,.6,.12c.17,.08,.32,.18,.44,.31,.12,.13,.21,.28,.27,.45,.06,.17,.09,.34,.09,.51v.27h-2.49c0,.08,.02,.19,.05,.31,.03,.13,.09,.25,.18,.37,.09,.12,.2,.22,.34,.31,.14,.09,.33,.13,.56,.13,.2,0,.39-.05,.57-.14,.18-.09,.33-.22,.42-.39l.28,.24Zm-.3-1.18c0-.13-.03-.26-.08-.37s-.13-.22-.22-.31c-.09-.09-.2-.16-.33-.21-.13-.05-.26-.08-.4-.08-.21,0-.38,.04-.52,.13-.14,.09-.25,.18-.33,.3s-.14,.22-.17,.32c-.04,.1-.05,.18-.05,.22h2.11Z"/><path class="l" d="M180.16,49.12h-.85v1.93c0,.13,.04,.24,.11,.31,.07,.07,.17,.11,.3,.11,.07,0,.15,0,.22-.03,.08-.02,.15-.04,.22-.07l.03,.35c-.07,.03-.16,.05-.25,.07-.09,.02-.18,.03-.25,.03-.14,0-.25-.02-.35-.06s-.18-.1-.24-.16c-.06-.07-.1-.15-.13-.24-.03-.09-.04-.19-.04-.3v-1.93h-.64v-.35h.64v-.85h.39v.85h.85v.35Z"/><path class="l" d="M180.85,46.89h.39v2.41h.01c.08-.16,.21-.3,.39-.42s.39-.18,.63-.18,.42,.04,.57,.11,.26,.17,.34,.29c.08,.12,.14,.25,.17,.41,.03,.15,.05,.31,.05,.48v1.77h-.39v-1.75c0-.12-.01-.24-.03-.35-.02-.11-.06-.22-.11-.31-.05-.09-.13-.16-.22-.22-.1-.05-.22-.08-.38-.08-.14,0-.27,.02-.4,.07-.13,.05-.24,.12-.33,.22-.09,.1-.17,.23-.22,.38-.05,.15-.08,.33-.08,.54v1.48h-.39v-4.86Z"/><path class="l" d="M187.05,51.19c-.15,.23-.33,.39-.56,.49-.22,.1-.46,.15-.73,.15-.23,0-.43-.04-.62-.12-.18-.08-.34-.19-.48-.32s-.23-.3-.3-.49c-.07-.19-.11-.4-.11-.63s.04-.43,.11-.62,.18-.35,.31-.49c.13-.14,.29-.25,.47-.33,.18-.08,.38-.12,.6-.12s.43,.04,.6,.12c.17,.08,.32,.18,.44,.31,.12,.13,.21,.28,.27,.45,.06,.17,.09,.34,.09,.51v.27h-2.49c0,.08,.02,.19,.05,.31,.03,.13,.09,.25,.18,.37,.09,.12,.2,.22,.34,.31,.14,.09,.33,.13,.56,.13,.2,0,.39-.05,.57-.14,.18-.09,.33-.22,.42-.39l.28,.24Zm-.3-1.18c0-.13-.03-.26-.08-.37s-.13-.22-.22-.31c-.09-.09-.2-.16-.33-.21-.13-.05-.26-.08-.4-.08-.21,0-.38,.04-.52,.13-.14,.09-.25,.18-.33,.3s-.14,.22-.17,.32c-.04,.1-.05,.18-.05,.22h2.11Z"/><path class="l" d="M188,49.61c0-.06,0-.12,0-.2,0-.08,0-.16,0-.24,0-.08,0-.16,0-.23,0-.07,0-.12,0-.16h.39c0,.11,0,.22,0,.32,0,.1,0,.17,.02,.2,.1-.18,.23-.32,.38-.43,.15-.11,.34-.17,.57-.17,.04,0,.08,0,.11,0,.04,0,.07,.01,.11,.02l-.05,.38c-.05-.02-.1-.03-.15-.03-.17,0-.31,.03-.43,.08s-.22,.13-.3,.22-.14,.2-.18,.33c-.04,.13-.06,.26-.06,.41v1.62h-.39v-2.13Z"/></g><path class="m" d="M15.86,16.7c-.54-.78-1.25-1.34-2.15-1.71-.9-.36-1.84-.54-2.83-.54-.59,0-1.16,.07-1.71,.2-.55,.13-1.04,.35-1.49,.64-.44,.29-.8,.68-1.06,1.14-.27,.47-.4,1.02-.4,1.67,0,.96,.33,1.7,1,2.21,.67,.51,1.5,.95,2.49,1.33,.99,.38,2.07,.74,3.25,1.08,1.18,.35,2.26,.83,3.25,1.45,.99,.62,1.82,1.43,2.49,2.45,.67,1.02,1,2.37,1,4.06,0,1.53-.28,2.86-.84,4-.56,1.14-1.32,2.08-2.27,2.83-.95,.75-2.05,1.31-3.31,1.69-1.26,.37-2.58,.56-3.98,.56-1.77,0-3.47-.29-5.1-.88-1.63-.59-3.04-1.58-4.22-2.97l3.82-3.69c.62,.94,1.43,1.67,2.43,2.19,1,.52,2.07,.78,3.19,.78,.59,0,1.18-.08,1.77-.24,.59-.16,1.12-.4,1.61-.72,.48-.32,.87-.73,1.16-1.23,.29-.5,.44-1.06,.44-1.71,0-1.04-.33-1.85-1-2.41-.67-.56-1.5-1.04-2.49-1.43-.99-.39-2.08-.76-3.25-1.1-1.18-.35-2.26-.82-3.25-1.43-.99-.6-1.82-1.41-2.49-2.41-.67-1-1-2.35-1-4.04,0-1.47,.3-2.74,.9-3.82,.6-1.07,1.39-1.96,2.37-2.67,.98-.71,2.09-1.24,3.35-1.59,1.26-.35,2.54-.52,3.86-.52,1.5,0,2.95,.23,4.36,.68,1.41,.46,2.67,1.2,3.79,2.25l-3.69,3.9Z"/><path class="m" d="M24.86,10.6h5.06V28.43c0,.7,.11,1.43,.32,2.19,.21,.76,.57,1.47,1.06,2.11,.5,.64,1.15,1.17,1.97,1.59,.82,.42,1.83,.62,3.03,.62s2.22-.21,3.03-.62c.82-.42,1.47-.94,1.97-1.59,.5-.64,.85-1.35,1.06-2.11,.21-.76,.32-1.49,.32-2.19V14.99h5.06v13.6c0,1.71-.29,3.26-.86,4.64-.58,1.38-1.38,2.55-2.41,3.51-1.03,.96-2.24,1.71-3.63,2.23-1.39,.52-2.9,.78-4.54,.78s-3.15-.26-4.54-.78c-1.39-.52-2.6-1.26-3.61-2.23-1.02-.96-1.82-2.14-2.41-3.51-.59-1.38-.88-2.92-.88-4.64V10.6Z"/><path class="m" d="M53.97,14.94v-4.34h9.56c1.37,0,2.68,.13,3.96,.4,1.27,.27,2.39,.72,3.35,1.35,.96,.63,1.73,1.47,2.31,2.53,.58,1.06,.86,2.38,.86,3.96,0,1.79-.31,3.24-.92,4.34-.62,1.1-1.45,1.95-2.49,2.55s-2.26,1.01-3.63,1.23c-1.38,.21-2.82,.32-4.32,.32h-3.61v11.77h-5.06V22.93h8.11c.72,0,1.47-.02,2.25-.08,.78-.05,1.49-.21,2.15-.48,.66-.27,1.19-.67,1.61-1.2,.41-.53,.62-1.28,.62-2.25,0-.88-.19-1.59-.56-2.11-.38-.52-.86-.92-1.45-1.2-.59-.28-1.25-.46-1.97-.54-.72-.08-1.42-.12-2.09-.12h-8.67Z"/><g><rect class="m" x="78.47" y="11.2" width="18.88" height="4.56"/><polygon class="m" points="97.34 27.31 97.34 22.74 78.47 22.74 78.47 27.09 78.47 27.31 78.47 34.29 78.47 38.86 83.53 38.86 97.34 38.86 97.34 34.29 83.53 34.29 83.53 27.31 97.34 27.31"/></g><g><path class="i" d="M131.25,14.94v-4.34h9.56c1.37,0,2.68,.13,3.96,.4,1.27,.27,2.39,.72,3.35,1.35,.96,.63,1.73,1.47,2.31,2.53,.58,1.06,.86,2.38,.86,3.96,0,1.79-.31,3.24-.92,4.34-.62,1.1-1.45,1.95-2.49,2.55s-2.26,1.01-3.63,1.23c-1.38,.21-2.82,.32-4.32,.32h-3.61v11.77h-5.06V22.93h8.11c.72,0,1.47-.02,2.25-.08,.78-.05,1.49-.21,2.15-.48,.66-.27,1.19-.67,1.61-1.2,.41-.53,.62-1.28,.62-2.25,0-.88-.19-1.59-.56-2.11-.38-.52-.86-.92-1.45-1.2-.59-.28-1.25-.46-1.97-.54-.72-.08-1.42-.12-2.09-.12h-8.67Z"/><path class="h" d="M124.94,38.88l-6.39-12.21c.86-.23,1.64-.54,2.34-.95,1.04-.6,1.87-1.45,2.49-2.55,.62-1.1,.92-2.54,.92-4.34,0-1.58-.29-2.9-.86-3.96-.58-1.06-1.35-1.9-2.31-2.53-.96-.63-2.08-1.08-3.35-1.35-1.27-.27-2.59-.4-3.96-.4h-9.56v4.34h8.67c.67,0,1.37,.04,2.09,.12,.72,.08,1.38,.26,1.97,.54,.59,.28,1.07,.68,1.45,1.2,.37,.52,.56,1.23,.56,2.11,0,.96-.21,1.71-.62,2.25-.42,.54-.95,.94-1.61,1.2-.66,.27-1.37,.43-2.15,.48-.78,.05-1.53,.08-2.25,.08h-8.11v16.11h5.06v-11.77h3.61c.25,0,.5,0,.74-.01l6.08,11.63h5.17Z"/><g><path class="k" d="M183.66,39.03h5.06v-12.17l1.07-1.63c-1.94,1.29-3.99,2.34-6.13,3.17v10.63Z"/><path class="j" d="M198.6,0l-9.88,5.55,4.59,1.55c-2.13,5.1-4.95,9.36-8.25,12.8l-5.74-9.3h-6.35l8.33,12.68c-2.55,1.99-5.3,3.57-8.19,4.75l-7.51-17.43h-4.38l-12.37,28.43h5.66l2.57-6.51h12.33l2.65,6.51h5.78l-3.61-8.39c-3.87,.44-7.96,.39-12.22-.04,.13,0,.26,0,.39,0,16.26,.43,29.25-4.83,36.35-21.83l4.5,1.59-4.66-10.36Zm-39.78,28.19l4.46-11.57,4.38,11.57h-8.83Z"/></g></g></g></g></g></svg>